PathFileType	4	(X/Y/Z)	/Users/niels/Desktop/University/Third Semester/Perception and Action/Exam/Gymnastics Motion Tracking/Code for Gym Tracking/Analyzed Data/Webcam_Backflip/id3_4_trajectory_Sports2D/id3_4_trajectory_Sports2D_px_person00.trc
DataRate	CameraRate	NumFrames	NumMarkers	Units	OrigDataRate	OrigDataStartFrame	OrigNumFrames
29.810126582278482	29.810126582278482	12	22	m	29.810126582278482	98	158
Frame#	Time	Hip			RHip			RKnee			RAnkle			RBigToe			RSmallToe			RHeel			LHip			LKnee			LAnkle			LBigToe			LSmallToe			LHeel			Neck			Head			Nose			RShoulder			RElbow			RWrist			LShoulder			LElbow			LWrist		
		X1	Y1	Z1	X2	Y2	Z2	X3	Y3	Z3	X4	Y4	Z4	X5	Y5	Z5	X6	Y6	Z6	X7	Y7	Z7	X8	Y8	Z8	X9	Y9	Z9	X10	Y10	Z10	X11	Y11	Z11	X12	Y12	Z12	X13	Y13	Z13	X14	Y14	Z14	X15	Y15	Z15	X16	Y16	Z16	X17	Y17	Z17	X18	Y18	Z18	X19	Y19	Z19	X20	Y20	Z20	X21	Y21	Z21	X22	Y22	Z22
98	3.2874734607218685	0.922650288012574	-0.6338438261491781	0.0	0.9188168100116716	-0.6363322878223262	0.0	1.0169385125066963	-0.6972949804863269	0.0	0.9792955511389378	-0.8015167160639323	0.0	1.022184999469964	-0.8124187977783278	0.0	1.0180995145773053	-0.8160780511664075	0.0	0.9652617144267577	-0.8121470990882235	0.0	0.9271340521810929	-0.6315629309313873	0.0	1.003512989866519	-0.6933776517323958	0.0	0.9681264265195184	-0.7956287851123246	0.0	1.011002548754614	-0.8110851754979028	0.0	1.0049888072619837	-0.8061501657004297	0.0	0.954831074345677	-0.807874808169681	0.0	1.0000839486441873	-0.5079964497606062	0.0	1.0391480330322163	-0.44523750885745333	0.0	1.0398714352776457	-0.48671550408851744	0.0	0.9942451560964419	-0.5193866775365459	0.0	1.0738393349024729	-0.5233116128356593	0.0	1.1404682541124742	-0.49844830394922657	0.0	0.991050124150266	-0.511549218521223	0.0	1.068221889407751	-0.5154330819307228	0.0	1.124354028352933	-0.4951453724008358	0.0
99	3.3210191082802547	0.914605842188171	-0.6136817864764209	0.0	0.9092018299368624	-0.616923442973602	0.0	1.0144101696636139	-0.6679416186323289	0.0	0.9734678185563415	-0.7723413489639147	0.0	1.0159727503460534	-0.7853190262979065	0.0	1.0102165471545435	-0.7898040451991002	0.0	0.9594066749929279	-0.7834536688979179	0.0	0.9223314810039246	-0.6113378270775116	0.0	1.0063912793651917	-0.6594456609417234	0.0	0.9701232026554175	-0.7629695854373382	0.0	1.0126821935583432	-0.7802140969090557	0.0	1.0073179254600235	-0.7727633803102419	0.0	0.9561438351708837	-0.7756978969409274	0.0	0.99738978639909	-0.4922128594602847	0.0	1.0385301603722124	-0.4300690330625687	0.0	1.037601144132809	-0.4716655826952558	0.0	0.9915861222284807	-0.5035207320769503	0.0	1.0702008557609684	-0.5143399982304151	0.0	1.1386633470511698	-0.49743222279164195	0.0	0.9888121371717166	-0.4963710287365305	0.0	1.0667971279876431	-0.5070798821126442	0.0	1.1265420565728923	-0.49464945416904366	0.0
100	3.3545647558386413	0.9079047171954047	-0.5934133147624658	0.0	0.90123403633368	-0.5972683918899059	0.0	1.0091698018215727	-0.6453172921445761	0.0	0.9634858745615743	-0.7492040476782981	0.0	1.0052501583564015	-0.7649839062596769	0.0	0.9976927597222246	-0.76981864548391	0.0	0.9492011833979707	-0.7602516879372879	0.0	0.9184204141997971	-0.5910316534247579	0.0	1.0075358572311255	-0.6296306323763584	0.0	0.9722331235279065	-0.7345641388237064	0.0	1.0146096108997948	-0.7502464640623248	0.0	1.0088249124660218	-0.7430594532966	0.0	0.9581763395662733	-0.7475484334975656	0.0	0.9940428542896601	-0.4746095967217034	0.0	1.037385701720435	-0.4130193176939861	0.0	1.0349228223660696	-0.4549059911160857	0.0	0.9886110893394773	-0.48596360411973805	0.0	1.0659579108871207	-0.5028926510412594	0.0	1.1361570705568396	-0.49218899157777485	0.0	0.9852135242571566	-0.4792387632231417	0.0	1.0635746074028596	-0.4960643676590374	0.0	1.1255267258424912	-0.4890293440195196	0.0
101	3.3881104033970275	0.90272790385355	-0.5752234013775929	0.0	0.8950977808024547	-0.5792694186558086	0.0	1.001025084179744	-0.6319934322466118	0.0	0.9495242065151529	-0.7348371870563638	0.0	0.9902356353843554	-0.7539599062936962	0.0	0.9808995748317507	-0.7585167172072881	0.0	0.9348049511885668	-0.7454256721316629	0.0	0.9153246314075978	-0.5727976724859054	0.0	1.0065838271813927	-0.6069345208974426	0.0	0.9743199346974648	-0.713297202779079	0.0	1.0164305109511285	-0.7261335340518756	0.0	1.0103270860781253	-0.7201232625432255	0.0	0.960808662152769	-0.72631013007941	0.0	0.9900246043061003	-0.4569831535203794	0.0	1.035298840440655	-0.3959175946253105	0.0	1.0316782668861004	-0.4383138344627833	0.0	0.9851068854064288	-0.4683763999873874	0.0	1.0611102370135688	-0.4901919972781336	0.0	1.1328397432741428	-0.4835425093805985	0.0	0.9802430571338955	-0.4619877027968169	0.0	1.0587790462295434	-0.4837529800519319	0.0	1.1219438606838437	-0.47959512721796516	0.0
102	3.421656050955414	0.8990188164153277	-0.560443957503316	0.0	0.8907306147402557	-0.5640209723706472	0.0	0.9900530986460075	-0.6278340344053611	0.0	0.9330956546592633	-0.7296880964553689	0.0	0.9726764865769092	-0.7520606140336098	0.0	0.9618001140892003	-0.7558398968895804	0.0	0.9178639084986215	-0.7397879596540035	0.0	0.913026610652282	-0.557898366954363	0.0	1.003537453450161	-0.592468954836071	0.0	0.9764997730478833	-0.7001067709357293	0.0	1.0182875361718602	-0.709908482243978	0.0	1.0122976882990933	-0.70510144102644	0.0	0.9639552848452805	-0.7130181969151873	0.0	0.9854823889405425	-0.4406888100537052	0.0	1.0321719797338855	-0.3801133275270759	0.0	1.0278876672475008	-0.4232155034595179	0.0	0.9810227896674841	-0.4520471724370444	0.0	1.055832030072538	-0.4774848405092464	0.0	1.1289324924947746	-0.4729363301905855	0.0	0.9741658822894642	-0.4460038190663918	0.0	1.0527902511680796	-0.47144011123061147	0.0	1.1166154251561227	-0.4683304563998817	0.0
103	3.4552016985138003	0.89653473461255	-0.5496692550170147	0.0	0.8878173607263237	-0.5520813160844427	0.0	0.976669031388862	-0.630801562150282	0.0	0.9164969985908157	-0.7324898502975182	0.0	0.9552537352136367	-0.7571401499487586	0.0	0.9433010170560833	-0.759996936712236	0.0	0.9008979546779459	-0.7424245704823398	0.0	0.9115003567204933	-0.5468787700661654	0.0	0.9986127977450491	-0.5859843394242582	0.0	0.9789092324157438	-0.6945022935771804	0.0	1.0204498278283602	-0.7013160934374756	0.0	1.0148296263579037	-0.6975207178233566	0.0	0.9675840263847917	-0.7073394848065264	0.0	0.9805628659223166	-0.42676667868494467	0.0	1.0280886210411002	-0.3665378409700882	0.0	1.0236020890552848	-0.41047182678259747	0.0	0.9763666116718013	-0.43795797247269425	0.0	1.0503176550537279	-0.46584955174704723	0.0	1.1247911896266538	-0.4619744198881098	0.0	0.9674810619774682	-0.43233640515669175	0.0	1.0459169704875717	-0.4601731850881454	0.0	1.1099307540081154	-0.4573764240448626	0.0
104	3.488747346072187	0.8949191370691522	-0.5430045529811489	0.0	0.8859397939638801	-0.5437673534341462	0.0	0.9617009262567086	-0.6381248715759714	0.0	0.9018693439946089	-0.7409468232640912	0.0	0.9404755705759273	-0.7661972774417547	0.0	0.9279498835954646	-0.7683601804766268	0.0	0.8862243352932896	-0.7511731516656441	0.0	0.9104733633109544	-0.5398502209695689	0.0	0.9921073000746272	-0.5864295554802818	0.0	0.9815083585061357	-0.695260713486534	0.0	1.0230127701525555	-0.6987871128111703	0.0	1.0176887679515016	-0.6958848561017401	0.0	0.9716700754561649	-0.7082042655917574	0.0	0.9753348124961181	-0.41598637813265654	0.0	1.0231210503904566	-0.35578540084968474	0.0	1.0188553272061323	-0.4005265575892373	0.0	0.9711845675932127	-0.42685467854409365	0.0	1.0447316456074844	-0.45611652287173465	0.0	1.1206857383277204	-0.4520486228117945	0.0	0.9607190806308749	-0.4218023756843379	0.0	1.0382160514514616	-0.4507460708189732	0.0	1.101422873666967	-0.4486590945543116	0.0
105	3.522292993630573	0.8937674046823738	-0.5402533386757503	0.0	0.8847486762384665	-0.539218196602801	0.0	0.9463494914986862	-0.6472819815654486	0.0	0.890512397080735	-0.7524472901217731	0.0	0.9298119792461053	-0.7764876780441132	0.0	0.9170452929621391	-0.778364407927287	0.0	0.8752015764156971	-0.7632753186021484	0.0	0.9093883753085855	-0.5366514184006616	0.0	0.9843089781289918	-0.5924340029750039	0.0	0.9839725536802744	-0.7009466716246529	0.0	1.025654074728321	-0.7005485467363248	0.0	1.020340659750165	-0.6985052724042113	0.0	0.9759425440129892	-0.7142825311472939	0.0	0.9698406679180391	-0.4087702574411845	0.0	1.0172784783361448	-0.34818982657370345	0.0	1.0137164140695416	-0.3935104309554543	0.0	0.9656320929203414	-0.4192702103172685	0.0	1.039259480181142	-0.44885164258772886	0.0	1.1166907577435274	-0.44412029964471217	0.0	0.9541689378937179	-0.4149290639213864	0.0	1.0294376737961854	-0.44377620125988027	0.0	1.089778019727258	-0.44363018592205655	0.0
106	3.5558386411889598	0.8927418299613233	-0.5410011386494843	0.0	0.8840198332887674	-0.5383108390330779	0.0	0.9319457481576606	-0.6565504755502709	0.0	0.8827088100247669	-0.764749122638796	0.0	0.9235527874201036	-0.7862047521054861	0.0	0.9106622644395597	-0.7881447006880662	0.0	0.868073811345136	-0.7761795088993707	0.0	0.9077465548188169	-0.5369030366776881	0.0	0.9755248454245352	-0.6026010272987641	0.0	0.9856893707416653	-0.7101435560133184	0.0	1.0276396181924121	-0.7054768254810239	0.0	1.0220500841574733	-0.7042277715686295	0.0	0.9796369708648787	-0.7241848343439731	0.0	0.964170716592822	-0.4051470477496054	0.0	1.0106173924471777	-0.3438950647874879	0.0	1.0083127165129575	-0.38941007973194747	0.0	0.9599642436397579	-0.4154725076384269	0.0	1.0341399975988799	-0.44435528655806966	0.0	1.1127473856945922	-0.43866756608526775	0.0	0.9477910423416264	-0.41184970603571724	0.0	1.0192697882097235	-0.4396870331386257	0.0	1.0734674823061823	-0.44300213190633897	0.0
107	3.589384288747346	0.8916918802710943	-0.5446557690171544	0.0	0.8836194431518306	-0.5406407383601058	0.0	0.9195731720881429	-0.6651100468024913	0.0	0.877962630087589	-0.7763947637936564	0.0	0.921271890757462	-0.7944532425110323	0.0	0.9082435387185462	-0.7966546573402166	0.0	0.8642660580166609	-0.7881485596376817	0.0	0.9054238808563428	-0.5400678973605889	0.0	0.9661653988089545	-0.6155924027273394	0.0	0.9859759768215051	-0.7215906574597603	0.0	1.02817035170762	-0.7132504232582496	0.0	1.022155445576792	-0.7126175185976087	0.0	0.981701194816323	-0.7365982999848205	0.0	0.9584572694215177	-0.40482391249719246	0.0	1.0033482557309523	-0.3428610552060483	0.0	1.0027723960691466	-0.388166027440459	0.0	0.9544293002200872	-0.4153759934957117	0.0	1.0295589223504018	-0.44266412443930303	0.0	1.1087876368679055	-0.4357410738970949	0.0	0.9413815255532307	-0.41230757254660777	0.0	1.0079626092183895	-0.43858755165247915	0.0	1.052186803587191	-0.4463736721485879	0.0
108	3.6229299363057326	0.8906462677363722	-0.5504881180998523	0.0	0.8834632700519618	-0.5455916764786096	0.0	0.9097884249937497	-0.6728038177871112	0.0	0.8754206242882449	-0.7867353833481557	0.0	0.9223678359306238	-0.8008275262035913	0.0	0.909162101223496	-0.8034062207460426	0.0	0.8628644256055851	-0.7983812398910931	0.0	0.9026449434196017	-0.5455084511213524	0.0	0.956794203427811	-0.6301132188433033	0.0	0.9845079444764755	-0.7342552888693029	0.0	1.0268437604804694	-0.723758276388201	0.0	1.0204200538943702	-0.7234706549771694	0.0	0.981479444126542	-0.7503677937589474	0.0	0.9528333489387535	-0.4073021422653344	0.0	0.9958362479597574	-0.344773600703229	0.0	0.9971934999259606	-0.3896241065595444	0.0	0.9491895072381712	-0.41850931960308857	0.0	1.0255102474063207	-0.44356121649364477	0.0	1.1047721464224276	-0.4350667662516927	0.0	0.9348398404541456	-0.41574912845610856	0.0	0.9972769152591842	-0.4401986566470861	0.0	1.0292611939394942	-0.4516356534152011	0.0
109	3.6564755838641188	0.8896814461885483	-0.5576981334437804	0.0	0.8834797107129979	-0.552422453334709	0.0	0.9025897075932485	-0.6797982464999375	0.0	0.8742240837774985	-0.7956709296500432	0.0	0.9261964645184493	-0.8051203953795218	0.0	0.9128218263723834	-0.8082226491874708	0.0	0.8629648494545746	-0.8067381914435942	0.0	0.8997728655304751	-0.5525292841552889	0.0	0.9481443166425638	-0.6449130144178699	0.0	0.9816246538536838	-0.7471954194507894	0.0	1.0239153763878819	-0.7362854991374688	0.0	1.0172095224553412	-0.7360910700255621	0.0	0.9792494044590015	-0.7643655955856269	0.0	0.9474538127077718	-0.4119427301285058	0.0	0.9885267811106228	-0.34899571675993796	0.0	0.9916997189362945	-0.3934328217570392	0.0	0.9443490396605393	-0.4240930156304613	0.0	1.0218133232294284	-0.4466075988949592	0.0	1.1006334287480988	-0.43616598745430624	0.0	0.9283537695285112	-0.42141767424072546	0.0	0.9903447856412773	-0.44393057201818326	0.0	1.0127085397573634	-0.45531207785708905	0.0
